<!-- images/icons.svg -->
<svg xmlns="http://www.w3.org/2000/svg" style="display: none;" aria-hidden="true">

  <symbol id="icon-play" viewBox="0 0 24 24" fill="currentColor" stroke-linecap="round" stroke-linejoin="round" fill-rule="evenodd">
    <title>Play</title>
  <path d="M4.5 5.653c0-1.427 1.529-2.33 2.779-1.643l11.54 6.347c1.295.712 1.295 2.573 0 3.286L7.28 19.99c-1.25.687-2.779-.217-2.779-1.643V5.653Z" clip-rule="evenodd" />
  </symbol>

  <symbol id="icon-pause" viewBox="0 0 24 24" fill="currentColor" stroke-linecap="round" stroke-linejoin="round" fill-rule="evenodd">
     <title>Pause</title>
     <path fill-rule="evenodd" d="M6.75 5.25a.75.75 0 0 1 .75-.75H9a.75.75 0 0 1 .75.75v13.5a.75.75 0 0 1-.75.75H7.5a.75.75 0 0 1-.75-.75V5.25Zm7.5 0A.75.75 0 0 1 15 4.5h1.5a.75.75 0 0 1 .75.75v13.5a.75.75 0 0 1-.75.75H15a.75.75 0 0 1-.75-.75V5.25Z" clip-rule="evenodd" />
  </symbol>

  <symbol id="icon-volume-on" viewBox="0 0 24 24" fill="currentColor" stroke-linecap="round" stroke-linejoin="round">
    <title>Volume On</title>
    <path d="M13.5 4.06c0-1.336-1.616-2.005-2.56-1.06l-4.5 4.5H4.508c-1.141 0-2.318.664-2.66 1.905A9.76 9.76 0 0 0 1.5 12c0 .898.121 1.768.35 2.595.341 1.24 1.518 1.905 2.659 1.905h1.93l4.5 4.5c.945.945 2.561.276 2.561-1.06V4.06ZM18.584 5.106a.75.75 0 0 1 1.06 0c3.808 3.807 3.808 9.98 0 13.788a.75.75 0 0 1-1.06-1.06 8.25 8.25 0 0 0 0-11.668.75.75 0 0 1 0-1.06Z" />
    <path d="M15.932 7.757a.75.75 0 0 1 1.061 0 6 6 0 0 1 0 8.486.75.75 0 0 1-1.06-1.061 4.5 4.5 0 0 0 0-6.364.75.75 0 0 1 0-1.06Z" />
  </symbol>

  <symbol id="icon-volume-off" viewBox="0 0 24 24" fill="currentColor" stroke-linecap="round" stroke-linejoin="round">
    <title>Volume Off</title>
    <path d="M13.5 4.06c0-1.336-1.616-2.005-2.56-1.06l-4.5 4.5H4.508c-1.141 0-2.318.664-2.66 1.905A9.76 9.76 0 0 0 1.5 12c0 .898.121 1.768.35 2.595.341 1.24 1.518 1.905 2.659 1.905h1.93l4.5 4.5c.945.945 2.561.276 2.561-1.06V4.06ZM17.78 9.22a.75.75 0 1 0-1.06 1.06L18.44 12l-1.72 1.72a.75.75 0 1 0 1.06 1.06l1.72-1.72 1.72 1.72a.75.75 0 1 0 1.06-1.06L20.56 12l1.72-1.72a.75.75 0 1 0-1.06-1.06l-1.72 1.72-1.72-1.72Z" />
  </symbol>

  <symbol id="icon-menu" fill="none" viewBox="0 0 24 24" stroke-width="1.5" stroke="currentColor" > 
    <title>Nav Menu</title>   
    <path stroke-linecap="round" stroke-linejoin="round" d="M3.75 6.75h16.5M3.75 12h16.5m-16.5 5.25h16.5" />
  </symbol>

  <symbol id="icon-close" viewBox="0 0 24 24" fill="none" stroke-width="1.5" stroke="currentColor">
    <title>Nav Close</title>
    <path stroke-linecap="round" stroke-linejoin="round" d="M6 18 18 6M6 6l12 12" />
   </symbol>

   <symbol id="icon-sun" viewBox="0 0 24 24" fill="none" stroke="currentColor" stroke-width="1" stroke-linecap="round">
      <title>Sun</title>
      <circle cx="12" cy="12" r="5" fill="currentColor" />
      <line x1="12" y1="1" x2="12" y2="3" />
      <line x1="12" y1="21" x2="12" y2="23" />
      <line x1="4.22" y1="4.22" x2="5.64" y2="5.64" />
      <line x1="18.36" y1="18.36" x2="19.78" y2="19.78" />
      <line x1="1" y1="12" x2="3" y2="12" />
      <line x1="21" y1="12" x2="23" y2="12" />
      <line x1="4.22" y1="19.78" x2="5.64" y2="18.36" />
      <line x1="18.36" y1="5.64" x2="19.78" y2="4.22" />
    </symbol>

    <symbol id="icon-moon" viewBox="0 0 24 24" fill="currentColor">
      <title>Moon</title>
      <path d="M21 12.79A9 9 0 1 1 11.21 3 7 7 0 0 0 21 12.79z" />
    </symbol>

</svg>

<svg xmlns="http://www.w3.org/2000/svg" fill="none" viewBox="0 0 24 24" stroke-width="1.5" stroke="currentColor" class="size-6">
  <path stroke-linecap="round" stroke-linejoin="round" d="M3.75 6.75h16.5M3.75 12h16.5m-16.5 5.25h16.5" />
</svg>
