<!-- images/icons.svg -->
<svg xmlns="http://www.w3.org/2000/svg" style="display: none;">

  <symbol id="icon-play" viewBox="0 0 24 24" stroke="currentColor" stroke-width="1.5" fill="none" stroke-linecap="round" stroke-linejoin="round">
    <title>Play</title>
    <polygon points="5 3 19 12 5 21 5 3"></polygon>
  </symbol>

  <symbol id="icon-pause" viewBox="0 0 24 24" stroke="currentColor" stroke-width="1.5" fill="none" stroke-linecap="round" stroke-linejoin="round">
     <title>Pause</title>
    <rect x="6" y="4" width="4" height="16"></rect><rect x="14" y="4" width="4" height="16"></rect>
  </symbol>

  <symbol id="icon-volume-on" viewBox="0 0 24 24" stroke="currentColor" stroke-width="1.5" fill="none" stroke-linecap="round" stroke-linejoin="round">
     <title>Volume On</title>
    <polygon points="11 5 6 9 H4v6h2l5 4V5z"></polygon><path d="M19.07 4.93a10 10 0 0 1 0 14.14M15.54 8.46a5 5 0 0 1 0 7.07"></path>
  </symbol>

  <symbol id="icon-volume-off" viewBox="0 0 24 24" stroke="currentColor" stroke-width="1.5" fill="none" stroke-linecap="round" stroke-linejoin="round">
     <title>Volume Off</title>
    <polygon points="11 5 6 9 H4v6h2l5 4V5z"></polygon><line x1="23" y1="9" x2="17" y2="15"></line><line x1="17" y1="9" x2="23" y2="15"></line>
  </symbol>

</svg>